<svg height="512" viewBox="0 0 64 64" width="512" xmlns="http://www.w3.org/2000/svg"><g id="graph-monitor-computer-screen"><path d="m61 11v34h-58v-34a2.006 2.006 0 0 1 2-2h54a2.006 2.006 0 0 1 2 2z" fill="#2488ff"/><path d="m25 50h14v5h-14z" fill="#acabb1"/><path d="m61 45v3a2.006 2.006 0 0 1 -2 2h-54a2.006 2.006 0 0 1 -2-2v-3z" fill="#e8e5fb"/><path d="m20 55h24v6h-24z" fill="#e8e5fb"/><path d="m49 23h6v15h-6z" fill="#f3ac3c"/><path d="m39 25h6v13h-6z" fill="#f6cc4f"/><path d="m29 16h6v22h-6z" fill="#ec455a"/><path d="m19 29h6v9h-6z" fill="#f6cc4f"/><path d="m9 25h6v13h-6z" fill="#f3ac3c"/><path d="m6 38h52v3h-52z" fill="#5bcbfa"/><g fill="#57a4ff"><path d="m57 15h2v-3a1 1 0 0 0 -1-1h-3v2h2z"/><path d="m7 13h2v-2h-3a1 1 0 0 0 -1 1v3h2z"/></g></g></svg>