<svg id="Capa_1" enable-background="new 0 0 512 512" height="512" viewBox="0 0 512 512" width="512" xmlns="http://www.w3.org/2000/svg"><g><g><circle cx="87.415" cy="301.788" fill="#f1d0a5" r="52.033"/><path d="m113.295 256.656c4.382 7.624 6.9 16.456 6.9 25.88 0 28.737-23.296 52.033-52.032 52.033-9.425 0-18.256-2.519-25.88-6.9 8.978 15.623 25.82 26.152 45.132 26.152 28.737 0 52.032-23.296 52.032-52.033 0-19.311-10.529-36.153-26.152-45.132z" fill="#f1b986"/><path d="m0 395.447v35.487c0 5.69 4.612 10.302 10.302 10.302h154.226c5.69 0 10.302-4.612 10.302-10.302v-35.487c0-22.989-18.637-41.626-41.626-41.626h-91.578c-22.989 0-41.626 18.637-41.626 41.626z" fill="#f6e266"/><path d="m133.203 353.821h-24.976c22.989 0 41.626 18.637 41.626 41.626v45.789h14.674c5.69 0 10.302-4.612 10.302-10.302v-35.487c0-22.989-18.636-41.626-41.626-41.626z" fill="#f1d333"/></g><path d="m20.813 6.244h249.756c11.495 0 20.813 9.318 20.813 20.813v166.504c0 11.495-9.318 20.813-20.813 20.813h-58.651c-1.093 0-2.141.434-2.914 1.207l-29.867 29.867c-3.894 3.894-10.552 1.136-10.552-4.371v-22.583c0-2.276-1.845-4.121-4.121-4.121h-143.651c-11.495.001-20.813-9.317-20.813-20.812v-166.504c0-11.495 9.318-20.813 20.813-20.813z" fill="#c8ea73"/><path d="m241.431 47.87c-24.139 0-43.707 19.568-43.707 43.707v135.285l11.281-11.281c.773-.773 1.821-1.207 2.914-1.207h58.651c11.495 0 20.813-9.318 20.813-20.813v-145.691z" fill="#b7e445"/><g><circle cx="424.585" cy="366.309" fill="#f1d0a5" r="52.033"/><path d="m450.465 321.176c4.382 7.624 6.9 16.456 6.9 25.88 0 28.737-23.296 52.033-52.033 52.033-9.425 0-18.256-2.519-25.88-6.9 8.978 15.623 25.82 26.152 45.132 26.152 28.737 0 52.033-23.296 52.033-52.033.001-19.311-10.529-36.153-26.152-45.132z" fill="#f1b986"/><path d="m337.171 459.967v35.487c0 5.69 4.612 10.302 10.302 10.302h154.226c5.69 0 10.302-4.612 10.302-10.302v-35.487c0-22.989-18.637-41.626-41.626-41.626h-91.577c-22.991 0-41.627 18.637-41.627 41.626z" fill="#4073c8"/><path d="m470.374 418.341h-24.976c22.989 0 41.626 18.637 41.626 41.626v45.789h14.674c5.69 0 10.302-4.612 10.302-10.302v-35.487c0-22.989-18.637-41.626-41.626-41.626z" fill="#30579d"/></g><path d="m491.187 70.764h-249.756c-11.495 0-20.813 9.318-20.813 20.813v166.504c0 11.495 9.318 20.813 20.813 20.813h58.651c1.093 0 2.141.434 2.914 1.207l29.867 29.867c3.894 3.894 10.552 1.136 10.552-4.371v-22.583c0-2.276 1.845-4.121 4.121-4.121h143.652c11.495 0 20.813-9.318 20.813-20.813v-166.503c-.001-11.495-9.32-20.813-20.814-20.813z" fill="#ecf4ff"/><path d="m491.187 70.764h-31.219c11.495 0 20.813 9.318 20.813 20.813v166.504c0 11.495-9.318 20.813-20.813 20.813h31.219c11.495 0 20.813-9.318 20.813-20.813v-166.504c0-11.495-9.319-20.813-20.813-20.813z" fill="#cbe2ff"/><g fill="#f1d333"><path d="m51.434 441.236v-20.813c0-4.267-3.459-7.726-7.726-7.726s-7.726 3.459-7.726 7.726v20.813z"/><path d="m138.848 420.422c0-4.267-3.459-7.726-7.726-7.726-4.268 0-7.726 3.459-7.726 7.726v20.813h15.453v-20.813z"/></g><g fill="#30579d"><path d="m388.604 505.756v-20.813c0-4.267-3.459-7.726-7.726-7.726-4.268 0-7.726 3.459-7.726 7.726v20.813z"/><path d="m476.019 505.756v-20.813c0-4.267-3.459-7.726-7.726-7.726s-7.726 3.459-7.726 7.726v20.813z"/></g></g></svg>