<svg height="512" viewBox="0 0 128 128" width="512" xmlns="http://www.w3.org/2000/svg"><path d="m1 49.813 45.026-19.297 17.974 12.864-45.026 19.297z" fill="#bee6ff"/><path d="m127 49.813-45.026-19.297-17.974 12.864 45.026 19.297z" fill="#bee6ff"/><path d="m64 43.38-45.026 19.297 45.026 19.297 45.026-19.297z" fill="#96bef0"/><path d="m51.951 54.773v11.957a5.979 5.979 0 0 0 5.979 5.979h12.049a5.979 5.979 0 0 0 5.979-5.979v-11.957z" fill="#e678a0"/><path d="m79.8 6.924a24.149 24.149 0 0 0 -31.687 0 23.919 23.919 0 0 0 -2.676 33.145 31.74 31.74 0 0 1 4.379 6.674 20.014 20.014 0 0 1 2.138 8.031h24.003a20.014 20.014 0 0 1 2.143-8.032 31.74 31.74 0 0 1 4.379-6.674 23.919 23.919 0 0 0 -2.679-33.144z" fill="#f0dc78"/><path d="m109.026 107.703-45.026 19.297v-45.026l45.026-19.297z" fill="#b4aaf0"/><path d="m109.026 93.245v-30.568l-45.026 19.297 17.974 22.865z" fill="#a99be0"/><path d="m18.974 107.703 45.026 19.297v-45.026l-45.026-19.297z" fill="#c8beff"/><path d="m18.974 93.245v-30.568l45.026 19.297-17.974 22.865z" fill="#b4aaf0"/><path d="m127 75.541-45.026 19.298-17.974-12.865 45.026-19.297z" fill="#bee6ff"/><path d="m1 75.541 45.026 19.298 17.974-12.865-45.026-19.297z" fill="#d2faff"/><path d="m59.168 66.73v-11.957h-7.217v11.957a5.979 5.979 0 0 0 5.979 5.979h7.217a5.979 5.979 0 0 1 -5.979-5.979z" fill="#fa8cb4"/><path d="m57.03 46.742a31.74 31.74 0 0 0 -4.379-6.674 23.877 23.877 0 0 1 14.896-38.808 23.9 23.9 0 0 0 -22.113 38.809 31.745 31.745 0 0 1 4.379 6.674 20.014 20.014 0 0 1 2.138 8.031h7.217a20.014 20.014 0 0 0 -2.138-8.032z" fill="#ffe885"/><path d="m35.108 19.008a10.144 10.144 0 0 1 -10.143-10.143 10.144 10.144 0 0 1 -10.144 10.143 10.144 10.144 0 0 1 10.144 10.144 10.144 10.144 0 0 1 10.143-10.144z" fill="#ffe885"/><path d="m105.158 10.808a6.133 6.133 0 0 1 -6.133-6.133 6.133 6.133 0 0 1 -6.133 6.133 6.133 6.133 0 0 1 6.133 6.133 6.133 6.133 0 0 1 6.133-6.133z" fill="#ffe885"/><g fill="#785ae6"><path d="m109.025 63.677a.986.986 0 0 1 -.394-.081l-31.877-13.662a1 1 0 0 1 -.545-1.266c.293-.793.623-1.584.98-2.349a32.35 32.35 0 0 1 4.511-6.886 22.69 22.69 0 0 0 4.014-7.224 1 1 0 1 1 1.9.639 24.7 24.7 0 0 1 -4.369 7.852 30.407 30.407 0 0 0 -4.245 6.466q-.3.645-.573 1.31l30.473 13.06 16.073-11.5-32.473-13.923a1 1 0 1 1 .787-1.838l34.108 14.618a1 1 0 0 1 .188 1.732l-17.976 12.865a1 1 0 0 1 -.582.187z"/><path d="m64 82.975a1 1 0 0 1 -.394-.081l-45.025-19.294a1 1 0 0 1 0-1.838l31.8-13.63a1 1 0 0 1 1.332.572 17.821 17.821 0 0 1 1.235 6.073v11.953a4.984 4.984 0 0 0 4.979 4.979h12.052a4.984 4.984 0 0 0 4.979-4.979v-11.957a17.933 17.933 0 0 1 1.252-6.105 1 1 0 0 1 1.332-.572l31.878 13.662a1 1 0 0 1 0 1.838l-45.025 19.3a1 1 0 0 1 -.395.079zm-42.487-20.3 42.487 18.212 42.487-18.21-28.745-12.32a14.727 14.727 0 0 0 -.785 4.416v11.957a6.987 6.987 0 0 1 -6.979 6.979h-12.048a6.987 6.987 0 0 1 -6.979-6.979v-11.957a14.669 14.669 0 0 0 -.77-4.384z"/><path d="m69.979 73.709h-12.049a6.987 6.987 0 0 1 -6.979-6.979v-11.957a1 1 0 0 1 1-1h24.006a1 1 0 0 1 1 1v11.957a6.987 6.987 0 0 1 -6.978 6.979zm-17.028-17.936v10.957a4.984 4.984 0 0 0 4.979 4.979h12.049a4.984 4.984 0 0 0 4.979-4.979v-10.957z"/><path d="m75.957 55.773h-24.006a1 1 0 0 1 -1-1 18.589 18.589 0 0 0 -2.044-7.608 30.419 30.419 0 0 0 -4.244-6.465 24.828 24.828 0 0 1 2.785-34.53 25.291 25.291 0 0 1 33.012 0 1 1 0 0 1 -1.324 1.5 23.258 23.258 0 0 0 -30.363 0 22.835 22.835 0 0 0 -2.566 31.759 32.361 32.361 0 0 1 4.514 6.886 22.115 22.115 0 0 1 2.191 7.455h22.088a22.084 22.084 0 0 1 2.192-7.455 32.37 32.37 0 0 1 4.508-6.882 23 23 0 0 0 3.044-24.3 1 1 0 1 1 1.811-.85 25 25 0 0 1 -3.31 26.417 30.407 30.407 0 0 0 -4.245 6.466 18.562 18.562 0 0 0 -2.045 7.607 1 1 0 0 1 -.998 1z"/><path d="m64 63.677h-11.957a1 1 0 0 1 0-2h11.957a1 1 0 0 1 0 2z"/><path d="m64 128a1 1 0 0 1 -1-1v-45.025a1 1 0 0 1 1.582-.813l17.518 12.538 13.008-5.575a1 1 0 1 1 .787 1.838l-13.525 5.8a1 1 0 0 1 -.976-.105l-16.394-11.738v41.563l43.025-18.439v-22.282l-4.053 1.738a1 1 0 0 1 -.787-1.838l5.447-2.334a1 1 0 0 1 1.394.919v24.453a1 1 0 0 1 -.606.919l-45.025 19.3a.986.986 0 0 1 -.395.081z"/><path d="m64 128a.986.986 0 0 1 -.394-.081l-45.025-19.3a1 1 0 0 1 -.606-.919v-24.455a1 1 0 0 1 1.394-.919l5.447 2.334a1 1 0 0 1 -.787 1.838l-4.054-1.736v22.282l43.025 18.439v-41.563l-16.393 11.732a1 1 0 0 1 -.976.105l-13.525-5.8a1 1 0 0 1 .787-1.838l13.007 5.581 17.518-12.539a1 1 0 0 1 1.582.814v45.025a1 1 0 0 1 -1 1z"/><path d="m81.975 95.839a1 1 0 0 1 -.582-.187l-17.975-12.864a1 1 0 0 1 .188-1.732l45.025-19.3a1 1 0 0 1 .976.105l17.975 12.864a1 1 0 0 1 -.188 1.732l-23.422 10.043a1 1 0 0 1 -.787-1.838l21.79-9.339-16.075-11.506-42.875 18.377 16.075 11.506 13.008-5.575a1 1 0 1 1 .787 1.838l-13.525 5.8a.986.986 0 0 1 -.395.076z"/><path d="m46.025 95.839a.986.986 0 0 1 -.394-.081l-13.525-5.8a1 1 0 0 1 .787-1.838l13.007 5.58 16.073-11.5-42.873-18.383-16.075 11.504 21.79 9.339a1 1 0 0 1 -.787 1.838l-23.422-10.038a1 1 0 0 1 -.188-1.732l17.975-12.865a1 1 0 0 1 .976-.105l45.025 19.3a1 1 0 0 1 .188 1.732l-17.975 12.862a1 1 0 0 1 -.582.187z"/><path d="m50.18 50.39-30.81 13.21a1.1 1.1 0 0 1 -.4.08 1.054 1.054 0 0 1 -.58-.19l-17.97-12.86a1.007 1.007 0 0 1 .19-1.74l34.1-14.61a1 1 0 1 1 .79 1.83l-32.47 13.92 16.07 11.51 30.39-13.03c.27.65.5 1.27.69 1.88z"/><path d="m24.965 30.152a1 1 0 0 1 -1-1 9.154 9.154 0 0 0 -9.145-9.144 1 1 0 1 1 0-2 9.155 9.155 0 0 0 9.145-9.145 1 1 0 1 1 2 0 9.154 9.154 0 0 0 9.144 9.145 1 1 0 0 1 0 2 9.154 9.154 0 0 0 -9.144 9.144 1 1 0 0 1 -1 1zm-5.531-11.143a11.211 11.211 0 0 1 5.531 5.531 11.211 11.211 0 0 1 5.535-5.531 11.211 11.211 0 0 1 -5.531-5.531 11.211 11.211 0 0 1 -5.535 5.531z"/><path d="m99.025 17.941a1 1 0 0 1 -1-1 5.139 5.139 0 0 0 -5.134-5.134 1 1 0 0 1 0-2 5.139 5.139 0 0 0 5.134-5.134 1 1 0 1 1 2 0 5.139 5.139 0 0 0 5.133 5.134 1 1 0 0 1 0 2 5.139 5.139 0 0 0 -5.133 5.134 1 1 0 0 1 -1 1zm-2.494-7.134a7.192 7.192 0 0 1 2.494 2.493 7.192 7.192 0 0 1 2.494-2.494 7.192 7.192 0 0 1 -2.494-2.494 7.192 7.192 0 0 1 -2.494 2.496z"/></g></svg>