<svg id="Capa_1" enable-background="new 0 0 493.97 493.97" height="512" viewBox="0 0 493.97 493.97" width="512" xmlns="http://www.w3.org/2000/svg"><g><g><g><path d="m362.897 243.702-181.449 10-181.448-10v-24.109c0-8.945 7.251-16.196 16.196-16.196h346.701z" fill="#df646e"/></g></g><g><g><path d="m362.897 284.007-181.448 10-181.449-10v-40.305h362.897z" fill="#d82f3c"/></g></g><g><g><path d="m362.897 324.311h-346.701c-8.945 0-16.196-7.251-16.196-16.196v-24.108h362.897z" fill="#a81f2a"/></g></g><g><g><path d="m463.382 167.778c-9.616-5.848-20.908-9.216-32.985-9.216-21.273 0-40.087 10.463-51.627 26.508-11.54-16.046-30.354-26.508-51.627-26.508-35.111 0-63.573 28.463-63.573 63.573 0 14.462 4.829 27.797 12.963 38.479 11.563 15.185 71.889 71.924 102.237 88.182 30.348-16.258 90.674-72.997 102.237-88.182 8.134-10.682 12.963-24.016 12.963-38.479 0-12.47-3.59-24.101-9.793-33.916" fill="#d82f3c"/></g></g><g><g><path d="m430.397 158.562c-5.176 0-10.204.624-15.019 1.792 27.878 6.737 48.592 31.833 48.592 61.781 0 14.462-4.829 27.797-12.963 38.479-9.871 12.964-55.279 56.207-87.237 78.7 5.476 3.854 10.56 7.104 15 9.482 30.348-16.258 90.674-72.997 102.237-88.182 8.134-10.682 12.963-24.016 12.963-38.479 0-35.111-28.463-63.573-63.573-63.573z" fill="#c42430"/></g></g><g><g><path d="m251.23 94.943c-4.143 0-7.5-3.358-7.5-7.5v-6.281c0-4.142 3.357-7.5 7.5-7.5s7.5 3.358 7.5 7.5v6.281c0 4.142-3.358 7.5-7.5 7.5z" fill="#d9d9d9"/></g></g><g><g><path d="m274.394 112.148h-6.28c-4.143 0-7.5-3.358-7.5-7.5s3.357-7.5 7.5-7.5h6.28c4.143 0 7.5 3.358 7.5 7.5s-3.358 7.5-7.5 7.5z" fill="#d9d9d9"/></g></g><g><g><path d="m250.91 135.311c-4.143 0-7.5-3.358-7.5-7.5v-6.28c0-4.142 3.357-7.5 7.5-7.5s7.5 3.358 7.5 7.5v6.28c-.001 4.142-3.358 7.5-7.5 7.5z" fill="#d9d9d9"/></g></g><g><g><path d="m234.026 111.826h-6.28c-4.142 0-7.5-3.358-7.5-7.5s3.358-7.5 7.5-7.5h6.28c4.142 0 7.5 3.358 7.5 7.5 0 4.143-3.358 7.5-7.5 7.5z" fill="#d9d9d9"/></g></g><g><g><path d="m456.514 379.939c-4.143 0-7.5-3.358-7.5-7.5v-6.28c0-4.142 3.357-7.5 7.5-7.5 4.142 0 7.5 3.358 7.5 7.5v6.28c0 4.142-3.358 7.5-7.5 7.5z" fill="#d9d9d9"/></g></g><g><g><path d="m479.678 397.144h-6.28c-4.143 0-7.5-3.358-7.5-7.5s3.357-7.5 7.5-7.5h6.28c4.143 0 7.5 3.358 7.5 7.5s-3.357 7.5-7.5 7.5z" fill="#d9d9d9"/></g></g><g><g><path d="m456.193 420.307c-4.143 0-7.5-3.358-7.5-7.5v-6.28c0-4.142 3.357-7.5 7.5-7.5s7.5 3.358 7.5 7.5v6.28c0 4.142-3.358 7.5-7.5 7.5z" fill="#d9d9d9"/></g></g><g><g><path d="m439.31 396.823h-6.28c-4.143 0-7.5-3.358-7.5-7.5s3.357-7.5 7.5-7.5h6.28c4.142 0 7.5 3.358 7.5 7.5s-3.358 7.5-7.5 7.5z" fill="#d9d9d9"/></g></g></g></svg>