<?xml version="1.0" encoding="iso-8859-1"?>
<!-- Generator: Adobe Illustrator 19.0.0, SVG Export Plug-In . SVG Version: 6.00 Build 0)  -->
<svg version="1.1" id="Capa_1" xmlns="http://www.w3.org/2000/svg" xmlns:xlink="http://www.w3.org/1999/xlink" x="0px" y="0px"
	 viewBox="0 0 512 512" style="enable-background:new 0 0 512 512;" xml:space="preserve">
<polygon style="fill:#FFF5CD;" points="502,174.66 502,256 416,256 416,236 416,30 502,30 502,173.43 "/>
<polygon style="fill:#935C41;" points="267.06,204.89 326,143 416,236 416,256 416,276 267.43,276 244.57,276 96,276 96,256 96,216 
	186,123 266,206 "/>
<path style="fill:#BEE7F4;" d="M267.06,204.89L266,206l-80-83l-90,93V30V10h320v20v206l-90-93L267.06,204.89z"/>
<polygon style="fill:#FD3C65;" points="414.38,382.72 352.42,395.4 402.42,482 367.78,502 317.78,415.4 275.82,462.72 258.1,277.45 
	"/>
<g>
	<path style="fill:#FFF5CD;" d="M276,73c11.05,0,20,8.95,20,20s-8.95,20-20,20s-20-8.95-20-20S264.95,73,276,73z"/>
	<polygon style="fill:#FFF5CD;" points="96,216 96,256 10,256 10,174.66 10,173.43 10,30 96,30 	"/>
</g>
<path d="M512,30c0-5.522-4.478-10-10-10h-76V10c0-5.522-4.478-10-10-10H96c-5.522,0-10,4.478-10,10v10H10C4.478,20,0,24.478,0,30
	v143.43c0,0.208,0.019,0.411,0.031,0.615C0.019,174.25,0,174.452,0,174.66V256c0,5.522,4.478,10,10,10h76v10c0,5.522,4.478,10,10,10
	h152.872l16.994,177.672c0.379,3.962,3.071,7.322,6.855,8.556c3.783,1.234,7.939,0.105,10.581-2.873l32.755-36.938L359.12,507
	c1.326,2.297,3.511,3.973,6.072,4.659c0.852,0.229,1.721,0.341,2.588,0.341c1.74,0,3.467-0.454,5-1.34l34.64-20
	c4.783-2.762,6.422-8.877,3.66-13.66l-43.063-74.584l48.367-9.899c3.946-0.808,7.022-3.903,7.805-7.854s-0.882-7.986-4.223-10.236
	L288.692,286H416c5.522,0,10-4.478,10-10v-10h76c5.522,0,10-4.478,10-10v-81.34c0-0.208-0.019-0.411-0.031-0.615
	c0.012-0.205,0.031-0.407,0.031-0.615V30z M350.415,385.604c-3.149,0.645-5.797,2.764-7.115,5.695s-1.147,6.318,0.46,9.102
	l45,77.939l-17.319,10l-45-77.939c-1.607-2.784-4.455-4.625-7.652-4.949c-0.338-0.034-0.674-0.051-1.009-0.051
	c-2.844,0-5.573,1.214-7.481,3.365l-26.711,30.123L270.069,297.57l118.96,80.131L350.415,385.604z M106,20h300v191.287
	l-72.814-75.242C331.302,134.099,328.708,133,326,133c-0.014,0-0.026,0-0.04,0c-2.723,0.011-5.323,1.132-7.201,3.104l-52.801,55.442
	L193.2,116.061c-1.883-1.953-4.478-3.058-7.19-3.061c-0.003,0-0.006,0-0.01,0c-2.709,0-5.302,1.099-7.186,3.046L106,191.287V20z
	 M20,246v-71.34c0-0.208-0.019-0.411-0.031-0.615C19.981,173.84,20,173.637,20,173.43V40h66v206H20z M406,266H106v-45.954
	l79.985-82.651l72.814,75.545c0.074,0.077,0.157,0.144,0.233,0.219l27.585,29.653c1.971,2.117,4.644,3.188,7.324,3.188
	c2.438,0,4.883-0.887,6.81-2.678c4.043-3.762,4.271-10.09,0.511-14.134l-21.513-23.126l46.308-48.623L406,240.046V266z M492,246h-66
	V40h66v133.43c0,0.208,0.019,0.411,0.031,0.615c-0.012,0.205-0.031,0.407-0.031,0.615V246z"/>
<path d="M276,123c16.542,0,30-13.458,30-30s-13.458-30-30-30s-30,13.458-30,30S259.458,123,276,123z M276,83c5.514,0,10,4.486,10,10
	s-4.486,10-10,10s-10-4.486-10-10S270.486,83,276,83z"/>
<path d="M136,83h40c5.522,0,10-4.478,10-10s-4.478-10-10-10h-40c-5.522,0-10,4.478-10,10S130.478,83,136,83z"/>
<path d="M336,103h40c5.522,0,10-4.478,10-10s-4.478-10-10-10h-40c-5.522,0-10,4.478-10,10S330.478,103,336,103z"/>
<path d="M216,83c5.52,0,10-4.48,10-10s-4.48-10-10-10s-10,4.48-10,10S210.48,83,216,83z"/>
<g>
</g>
<g>
</g>
<g>
</g>
<g>
</g>
<g>
</g>
<g>
</g>
<g>
</g>
<g>
</g>
<g>
</g>
<g>
</g>
<g>
</g>
<g>
</g>
<g>
</g>
<g>
</g>
<g>
</g>
</svg>
