<svg id="Layer_1" enable-background="new 0 0 509.947 509.947" height="512" viewBox="0 0 509.947 509.947" width="512" xmlns="http://www.w3.org/2000/svg"><g><path d="m477.023 317.95c-39.393-39.394-100.972-43.399-144.887-12.034l-51.97-83.762c49.943-11.471 87.307-56.281 87.307-109.654 0-62.032-50.468-112.5-112.5-112.5s-112.5 50.468-112.5 112.5c0 53.373 37.363 98.184 87.307 109.654l-51.969 83.762c-43.916-31.365-105.493-27.359-144.887 12.034-43.864 43.864-43.864 115.235 0 159.1 43.857 43.857 115.228 43.869 159.099 0 36.091-36.091 42.48-90.802 19.179-133.493h87.544c-23.301 42.691-16.913 97.402 19.179 133.493 43.857 43.857 115.228 43.869 159.099 0 43.863-43.865 43.863-115.235-.001-159.1zm-239.55-205.45c0-9.649 7.851-17.5 17.5-17.5s17.5 7.851 17.5 17.5-7.851 17.5-17.5 17.5-17.5-7.851-17.5-17.5zm17.5 47.5c16.906 0 31.19 11.402 35.592 26.917-10.781 5.178-22.853 8.083-35.592 8.083-12.738 0-24.811-2.905-35.592-8.083 4.403-15.515 18.686-26.917 35.592-26.917zm46.598 153.557h-93.195l46.598-75.105zm-129.098-201.057c0-45.49 37.01-82.5 82.5-82.5s82.5 37.01 82.5 82.5c0 21.561-8.324 41.209-21.916 55.923-5.154-10.885-13.151-20.17-23.034-26.883 6.229-8.036 9.95-18.108 9.95-29.04 0-26.191-21.309-47.5-47.5-47.5s-47.5 21.309-47.5 47.5c0 10.932 3.721 21.004 9.95 29.04-9.883 6.713-17.88 15.998-23.034 26.883-13.592-14.714-21.916-34.362-21.916-55.923zm-95.592 359.415c4.404-15.514 18.688-26.915 35.592-26.915 16.905 0 31.188 11.401 35.591 26.915-22.44 10.707-48.742 10.706-71.183 0zm18.092-74.415c0-9.649 7.851-17.5 17.5-17.5s17.5 7.851 17.5 17.5-7.851 17.5-17.5 17.5-17.5-7.851-17.5-17.5zm78.1 55.957c-5.154-10.899-13.156-20.197-23.05-26.917 6.23-8.036 9.95-18.108 9.95-29.04 0-26.191-21.309-47.5-47.5-47.5s-47.5 21.309-47.5 47.5c0 10.932 3.721 21.004 9.95 29.04-9.894 6.72-17.895 16.017-23.05 26.916-29.868-32.318-29.125-82.905 2.264-114.293 32.166-32.167 84.504-32.167 116.673 0 31.388 31.389 32.132 81.976 2.263 114.294zm188.808 18.458c4.404-15.514 18.688-26.915 35.592-26.915 16.905 0 31.189 11.401 35.591 26.915-22.44 10.707-48.742 10.706-71.183 0zm18.092-74.415c0-9.649 7.851-17.5 17.5-17.5s17.5 7.851 17.5 17.5-7.851 17.5-17.5 17.5-17.5-7.851-17.5-17.5zm78.1 55.957c-5.154-10.899-13.156-20.197-23.05-26.917 6.229-8.036 9.95-18.108 9.95-29.04 0-26.191-21.309-47.5-47.5-47.5s-47.5 21.309-47.5 47.5c0 10.932 3.721 21.004 9.95 29.04-9.894 6.72-17.895 16.017-23.05 26.916-29.868-32.318-29.125-82.905 2.264-114.293 32.166-32.167 84.504-32.167 116.673 0 31.388 31.389 32.132 81.976 2.263 114.294z"/></g></svg>