<?xml version="1.0" encoding="iso-8859-1"?>
<!-- Generator: Adobe Illustrator 21.0.0, SVG Export Plug-In . SVG Version: 6.00 Build 0)  -->
<svg version="1.1" id="Capa_1" xmlns="http://www.w3.org/2000/svg" xmlns:xlink="http://www.w3.org/1999/xlink" x="0px" y="0px"
	 viewBox="0 0 512 512" style="enable-background:new 0 0 512 512;" xml:space="preserve">
<circle style="fill:#FFE000;" cx="256" cy="256" r="256"/>
<path style="fill:#FFB13B;" d="M512,256c0-19.812-2.253-39.097-6.512-57.615l-61.343-61.343l-327.264,39.101l-33.393,61.903
	l129.915,129.915L129.333,425l83.329,83.329C226.751,510.732,241.227,512,256,512C397.385,512,512,397.385,512,256z"/>
<polygon style="fill:#FFFFFF;" points="444.145,137.042 352.667,87 159.333,87 68.061,137.042 83.488,238.046 129.333,216.667 
	129.333,425 382.667,425 382.667,216.667 435,229 "/>
<polygon style="fill:#F2F6FC;" points="352.667,87 255.571,87 255.571,425 382.667,425 382.667,216.667 435,229 444.145,137.042 "/>
<path style="fill:#DCE1EB;" d="M256.103,164.333L256.103,164.333c-29.823,0-54-24.177-54-54V87h108v23.333
	C310.103,140.157,285.926,164.333,256.103,164.333z"/>
<path style="fill:#CDD2E1;" d="M255.571,87v77.32c0.178,0.002,0.353,0.013,0.532,0.013l0,0c29.823,0,54-24.177,54-54V87H255.571z"/>
<rect x="185.83" y="195" style="fill:#00EDFF;" width="140.33" height="140.33"/>
<rect x="255.57" y="195" style="fill:#00C7E8;" width="70.59" height="140.33"/>
<g>
</g>
<g>
</g>
<g>
</g>
<g>
</g>
<g>
</g>
<g>
</g>
<g>
</g>
<g>
</g>
<g>
</g>
<g>
</g>
<g>
</g>
<g>
</g>
<g>
</g>
<g>
</g>
<g>
</g>
</svg>
